<svg xmlns="http://www.w3.org/2000/svg" data-name="Layer 1" width="100" height="125" style=""><rect id="backgroundrect" width="100%" height="100%" x="0" y="0" fill="none" stroke="none"/><title>Artboard 23</title><g class="currentLayer" style=""><title>Layer 1</title><path d="M57.43,43.78a11.18,11.18,0,0,1-10-6.27,11.18,11.18,0,0,1-20.17-.17A11.19,11.19,0,0,1,17.1,43.78l-.77,0c-7.29-.49-11.68-8.38-8.68-15L18.19,5.28a5.78,5.78,0,0,1,5.27-3.41H71.32a5.78,5.78,0,0,1,5.27,3.41L87.13,28.71c3,6.66-1.39,14.55-8.69,15l-.77,0a11.19,11.19,0,0,1-10.12-6.44A11.18,11.18,0,0,1,57.43,43.78ZM53.7,55.14a3.31,3.31,0,0,0-3.31-3.31H32.29a3.31,3.31,0,0,0,0,6.63h18.1A3.31,3.31,0,0,0,53.7,55.14Zm-21.41,8.1a3.31,3.31,0,1,0,0,6.63H46.81a3.31,3.31,0,0,0,0-6.63ZM9.91,84.55h46l-.67-.91a25.21,25.21,0,0,1-4-8.38H22.93V47.75a16.11,16.11,0,0,1-5.83,1.11q-.56,0-1.12,0a15.56,15.56,0,0,1-2.34-.34V75.26H9.91a4.65,4.65,0,0,0,0,9.29ZM71.4,96.23,59.69,80.38C50.51,67.94,58.58,49.86,74,49.08l1.14,0,1.14,0c15.44.78,23.52,18.86,14.33,31.3L78.95,96.23A4.69,4.69,0,0,1,71.4,96.23ZM75.17,77.9a9.67,9.67,0,1,0-9.67-9.67A9.67,9.67,0,0,0,75.17,77.9Z" id="svg_1" class="" stroke-opacity="1" stroke="#ffffff" fill="#ccf3f9" fill-opacity="1"/><text x="0" y="115" fill="#000000" font-size="5px" font-weight="bold" font-family="'Helvetica Neue', Helvetica, Arial-Unicode, Arial, Sans-serif" id="svg_2">Created by Gregor Cresnar</text><text x="0" y="120" fill="#000000" font-size="5px" font-weight="bold" font-family="'Helvetica Neue', Helvetica, Arial-Unicode, Arial, Sans-serif" id="svg_3">from the Noun Project</text></g></svg>